<svg width="28" height="28" viewBox="0 0 28 28" fill="none" xmlns="http://www.w3.org/2000/svg">
<path fill-rule="evenodd" clip-rule="evenodd" d="M14 4.66671C8.84534 4.66671 4.66667 8.84538 4.66667 14V15.1667H2.33333V14C2.33333 7.55672 7.55668 2.33337 14 2.33337C20.4433 2.33337 25.6667 7.55672 25.6667 14V15.1667H23.3333V14C23.3333 8.84538 19.1547 4.66671 14 4.66671Z" fill="#330A12"/>
<path d="M7 14H2.33333V21C2.33333 22.9331 3.90034 24.5 5.83333 24.5H7C8.93299 24.5 10.5 22.9331 10.5 21V17.5C10.5 15.5669 8.93299 14 7 14Z" fill="#E78743"/>
<path d="M21 14C19.067 14 17.5 15.5669 17.5 17.5V21C17.5 22.9331 19.067 24.5 21 24.5H22.1667C24.0997 24.5 25.6667 22.9331 25.6667 21V14H21Z" fill="#E78743"/>
</svg>
