<svg width="70" height="16" viewBox="0 0 70 16" fill="none" xmlns="http://www.w3.org/2000/svg">
<path d="M36.9104 12.5622C35.8449 12.738 34.7662 12.8196 33.6867 12.806C31.662 12.806 29.4908 11.4727 29.4908 7.74978V5.57091C29.4908 1.62345 31.7669 0.500745 33.8303 0.500745C34.8615 0.491542 35.8916 0.567579 36.9104 0.728055C37.054 0.744702 37.1866 0.80846 37.1866 0.972012V1.78422C37.1866 1.89788 37.1231 1.94779 36.9766 1.94779H36.9131C35.9572 1.86739 35.2115 1.83412 33.8329 1.83412C32.3275 1.83412 30.9657 2.64635 30.9657 5.57091V7.74978C30.9657 10.4333 32.1813 11.4894 33.6894 11.4894C34.6757 11.4894 35.3468 11.4257 35.7279 11.3922V6.74352C35.7246 6.70249 35.7295 6.66117 35.7427 6.62215C35.7557 6.58313 35.7767 6.54718 35.804 6.51656C35.8315 6.48592 35.8648 6.46123 35.9022 6.44402C35.9395 6.4268 35.9798 6.41739 36.0207 6.41641H36.8965C36.9797 6.42069 37.0582 6.45713 37.1152 6.5181C37.1725 6.57905 37.2038 6.65984 37.2031 6.74352V12.2045C37.2056 12.2896 37.1772 12.3728 37.1235 12.4385C37.0696 12.5043 36.9938 12.5482 36.9104 12.5622Z" fill="white" fill-opacity="0.42"/>
<path d="M43.2413 4.88927C42.4871 4.85926 41.7321 4.91412 40.99 5.05283V12.3684C40.994 12.4477 40.9676 12.5255 40.9162 12.5857C40.8648 12.6461 40.7925 12.6844 40.7138 12.6926H39.8713C39.7897 12.6884 39.7132 12.6519 39.6582 12.5912C39.6034 12.5304 39.5748 12.4504 39.5786 12.3684V4.4679C39.5832 4.38627 39.6125 4.30799 39.6622 4.24322C39.7121 4.17846 39.7801 4.13022 39.8574 4.10477C40.78 3.69728 41.8989 3.65015 43.2413 3.65015C43.454 3.65015 43.5839 3.66677 43.5839 3.89408V4.63979C43.5839 4.80889 43.5508 4.88927 43.2413 4.88927Z" fill="white" fill-opacity="0.42"/>
<path d="M48.6168 12.8062C46.2359 12.8062 45.0259 11.229 45.0259 8.83938V7.60302C45.0259 5.21348 46.2412 3.63892 48.6168 3.63892C50.9925 3.63892 52.208 5.21348 52.208 7.60302V8.83938C52.208 11.229 50.9842 12.8062 48.6168 12.8062ZM50.8046 7.60302C50.8046 5.93976 50.139 4.88914 48.6168 4.88914C47.0949 4.88914 46.4456 5.93145 46.4456 7.60302V8.83938C46.4456 10.5025 47.0949 11.556 48.6168 11.556C50.139 11.556 50.8046 10.5137 50.8046 8.83938V7.60302Z" fill="white" fill-opacity="0.42"/>
<path d="M57.6109 12.8068H57.4564C56.3513 12.8068 54.1195 12.1886 54.1195 8.98691V4.07751C54.1159 4.03615 54.1211 3.99452 54.1345 3.95528C54.1479 3.91601 54.1694 3.88 54.1976 3.84949C54.2255 3.81901 54.2595 3.79469 54.2975 3.77811C54.3356 3.76153 54.3765 3.75304 54.4176 3.75318H55.2604C55.3011 3.7538 55.3415 3.76285 55.3787 3.77976C55.416 3.79668 55.4493 3.8211 55.4769 3.85152C55.5044 3.88194 55.5252 3.91771 55.5384 3.95657C55.5515 3.99546 55.5565 4.03662 55.5531 4.07751V8.98691C55.5531 10.9274 56.3817 11.5566 57.4647 11.5566H57.6109C58.6939 11.5566 59.5225 10.9384 59.5225 8.98691V4.07751C59.5191 4.03684 59.524 3.99591 59.537 3.95722C59.55 3.91853 59.5706 3.8829 59.5978 3.85252C59.6249 3.82215 59.658 3.79766 59.6949 3.78059C59.7318 3.76349 59.7718 3.75418 59.8126 3.75318H60.655C60.696 3.7538 60.7362 3.76285 60.7736 3.77976C60.8107 3.79668 60.8442 3.8211 60.8718 3.85152C60.899 3.88194 60.9201 3.91771 60.9333 3.95657C60.9462 3.99546 60.9514 4.03662 60.9478 4.07751V8.98691C60.9478 12.1886 58.7104 12.8068 57.6109 12.8068Z" fill="white" fill-opacity="0.42"/>
<path d="M66.4698 12.807C65.8344 12.7985 65.2008 12.7392 64.5748 12.6296V15.5708C64.5748 15.6113 64.5669 15.6512 64.5515 15.6887C64.5361 15.7259 64.5135 15.7598 64.4851 15.7885C64.4565 15.817 64.4227 15.8398 64.3856 15.8551C64.3482 15.8705 64.3084 15.8785 64.2682 15.8785H63.4395C63.3999 15.8781 63.3608 15.8699 63.3246 15.8543C63.2883 15.8384 63.2557 15.8155 63.2284 15.7867C63.2009 15.7582 63.1796 15.7241 63.1658 15.6871C63.1517 15.6501 63.1452 15.6105 63.1468 15.5708V4.38265C63.1468 4.17199 63.1964 4.07496 63.4865 4.0112C64.4627 3.77366 65.4627 3.64813 66.4671 3.63696C68.8812 3.63696 70.0001 5.2115 70.0001 7.65096V8.81802C70.0028 11.3767 68.8342 12.807 66.4698 12.807ZM68.5746 7.65373C68.5746 5.94612 68.0747 4.84282 66.4698 4.84282C65.8348 4.84652 65.2012 4.90027 64.5748 5.00361V11.4404C65.2014 11.5436 65.8348 11.5984 66.4698 11.604C68.0581 11.604 68.5746 10.5644 68.5746 8.83188V7.65373Z" fill="white" fill-opacity="0.42"/>
<path d="M8.71522 12.6726C7.9859 12.7863 5.95269 12.9305 5.24842 12.9305C2.12155 12.9305 0 12.1431 0 8.20132V1.01604C0.000670952 0.974412 0.00961955 0.933363 0.0263934 0.895255C0.0431672 0.85717 0.0670947 0.822783 0.0972876 0.794147C0.127257 0.765488 0.162818 0.743135 0.20151 0.728405C0.240425 0.713674 0.281802 0.706855 0.323177 0.708326H2.96404C3.00542 0.706476 3.04702 0.713028 3.08594 0.727625C3.12485 0.742222 3.16063 0.764529 3.19083 0.793255C3.2208 0.821981 3.24495 0.856523 3.2615 0.894787C3.27805 0.933073 3.28677 0.974301 3.28722 1.01604V8.20132C3.28722 9.665 3.77344 10.1418 4.92524 10.1418C5.44523 10.1401 5.96455 10.1068 6.48051 10.042V1.01604C6.48073 0.974301 6.48945 0.933073 6.506 0.894787C6.52255 0.856523 6.54671 0.821981 6.5769 0.793255C6.6071 0.764529 6.64265 0.742222 6.68157 0.727625C6.72048 0.713028 6.76208 0.706476 6.80368 0.708326H9.42778C9.51343 0.704537 9.59686 0.734712 9.6606 0.792275C9.72412 0.84986 9.76258 0.930243 9.7675 1.01604V11.4198C9.7675 12.329 9.49129 12.559 8.71522 12.6726Z" fill="white"/>
<path d="M14.8531 12.7863H12.1957C12.1107 12.7843 12.03 12.7488 11.9705 12.6875C11.9112 12.6265 11.8779 12.5445 11.8779 12.4593V1.01601C11.8788 0.974875 11.8875 0.934293 11.9039 0.896564C11.9202 0.858835 11.9439 0.824694 11.9734 0.796124C12.0029 0.767555 12.0376 0.745091 12.0758 0.730026C12.1139 0.714961 12.1548 0.707585 12.1957 0.70832H14.8531C14.8945 0.706448 14.9361 0.713001 14.975 0.727598C15.0139 0.742194 15.0497 0.764524 15.0797 0.793249C15.1099 0.821953 15.134 0.856495 15.1506 0.894781C15.1671 0.933045 15.1759 0.974296 15.1763 1.01601V12.4593C15.1765 12.5021 15.1685 12.5445 15.1524 12.5841C15.1363 12.6238 15.1126 12.6599 15.0826 12.6904C15.0524 12.7207 15.0168 12.7448 14.9773 12.7613C14.9379 12.7778 14.8956 12.7863 14.8531 12.7863Z" fill="white"/>
<path d="M24.2474 12.6396C23.5105 12.8504 22.7458 12.9487 21.9796 12.9307C18.999 12.9307 16.9908 11.3063 16.9908 7.58333V5.92007C16.9908 2.18604 18.999 0.5616 21.9796 0.5616C22.7458 0.545087 23.51 0.643186 24.2474 0.852668C24.5071 0.935836 24.6039 0.982948 24.6039 1.21028V3.29212C24.6039 3.50279 24.5071 3.59982 24.3277 3.59982H24.2778C23.525 3.51154 22.768 3.46343 22.01 3.45568C21.1344 3.45568 20.3525 3.84377 20.3525 5.90897V7.57223C20.3525 9.6208 21.1315 10.0283 22.01 10.0283C22.768 10.0198 23.525 9.97075 24.2778 9.88139H24.3082C24.5017 9.88139 24.5844 9.97842 24.5844 10.1891V12.2819C24.6039 12.4928 24.5071 12.5592 24.2474 12.6396Z" fill="white"/>
</svg>
